
<svg xmlns="http://www.w3.org/2000/svg" xmlns:xlink="http://www.w3.org/1999/xlink" width="31.98" height="28.93" viewBox="0 0 31.98 28.93"><defs><clipPath id="a" transform="translate(-2.28 -3.8)"><rect width="36.53" height="36.53" fill="none"/></clipPath></defs><g clip-path="url(#a)"><path d="M3.38,20.36c.77,1.71,2.56,3,4.89,3.89l.12,0,0,0a4.09,4.09,0,0,1,1.39-.66c8.74-2,14.71-4.89,15.31-12.16-2.91,4.12-7.24,5.29-11.64,5.29a42.72,42.72,0,0,1-7.82-.89.68.68,0,0,0-.2,0,3.07,3.07,0,0,0-.53.07,2.38,2.38,0,0,1-.39,0,3.43,3.43,0,0,1-1.09-.19l-.15,0a.44.44,0,0,0-.39.21l-.57,2.49a.52.52,0,0,0,.08.6A4.62,4.62,0,0,1,3.38,20.36Z" transform="translate(-2.28 -3.8)" fill="#0079c0"/><path d="M29.21,6a3.87,3.87,0,0,1,.13-.65c.05-.24.11-.44.11-.44l0-.09-.16-.56-.13-.46-1,.3-1.28.36-.24.07L26,4.68l-.62.18L25.72,6l.27.3.48.58c0,.05.06.08.06.1.12.29.23.56.32.81a10.54,10.54,0,0,1,.53,2.57c-.11,9.75-8.06,13.06-15.09,14.87L11,25.53l-.65.15a1.36,1.36,0,0,0-.39.17L9.62,26a3.19,3.19,0,0,1-1.47.47.48.48,0,0,0-.44.41l.5,2.62a.53.53,0,0,0,.33.54,4.62,4.62,0,0,1,1.52,1,8,8,0,0,0,5.41,1.69c8,0,19.9-7,18.7-16.62a7.58,7.58,0,0,0-3.54-5.5l-.1-.07a6.51,6.51,0,0,1-.85-1.88,11.77,11.77,0,0,1-.3-1.38C29.3,6.83,29.25,6.39,29.21,6Z" transform="translate(-2.28 -3.8)" fill="#0079c0"/></g></svg>